ISO-10303-21;
HEADER;
FILE_DESCRIPTION(('FreeCAD Model'),'2;1');
FILE_NAME('Open CASCADE Shape Model','2026-06-09T22:20:40',(''),(''),
  'Open CASCADE STEP processor 7.9','FreeCAD','Unknown');
FILE_SCHEMA(('AUTOMOTIVE_DESIGN { 1 0 10303 214 1 1 1 1 }'));
ENDSEC;
DATA;
#1 = APPLICATION_PROTOCOL_DEFINITION('international standard',
  'automotive_design',2000,#2);
#2 = APPLICATION_CONTEXT(
  'core data for automotive mechanical design processes');
#3 = SHAPE_DEFINITION_REPRESENTATION(#4,#10);
#4 = PRODUCT_DEFINITION_SHAPE('','',#5);
#5 = PRODUCT_DEFINITION('design','',#6,#9);
#6 = PRODUCT_DEFINITION_FORMATION('','',#7);
#7 = PRODUCT('Lid','Lid','',(#8));
#8 = PRODUCT_CONTEXT('',#2,'mechanical');
#9 = PRODUCT_DEFINITION_CONTEXT('part definition',#2,'design');
#10 = ADVANCED_BREP_SHAPE_REPRESENTATION('',(#11,#15),#1419);
#11 = AXIS2_PLACEMENT_3D('',#12,#13,#14);
#12 = CARTESIAN_POINT('',(0.,0.,0.));
#13 = DIRECTION('',(0.,0.,1.));
#14 = DIRECTION('',(1.,0.,-0.));
#15 = MANIFOLD_SOLID_BREP('',#16);
#16 = CLOSED_SHELL('',(#17,#57,#400,#425,#450,#579,#596,#613,#630,#647,
    #659,#690,#714,#738,#762,#786,#803,#820,#837,#854,#885,#909,#933,
    #957,#981,#998,#1015,#1046,#1070,#1094,#1118,#1142,#1164,#1181,#1198
    ,#1229,#1253,#1277,#1301,#1325,#1342,#1356,#1370,#1389,#1403));
#17 = ADVANCED_FACE('',(#18),#52,.F.);
#18 = FACE_BOUND('',#19,.F.);
#19 = EDGE_LOOP('',(#20,#30,#38,#46));
#20 = ORIENTED_EDGE('',*,*,#21,.F.);
#21 = EDGE_CURVE('',#22,#24,#26,.T.);
#22 = VERTEX_POINT('',#23);
#23 = CARTESIAN_POINT('',(30.5,-21.,11.));
#24 = VERTEX_POINT('',#25);
#25 = CARTESIAN_POINT('',(30.5,21.,11.));
#26 = LINE('',#27,#28);
#27 = CARTESIAN_POINT('',(30.5,-22.5,11.));
#28 = VECTOR('',#29,1.);
#29 = DIRECTION('',(0.,1.,0.));
#30 = ORIENTED_EDGE('',*,*,#31,.T.);
#31 = EDGE_CURVE('',#22,#32,#34,.T.);
#32 = VERTEX_POINT('',#33);
#33 = CARTESIAN_POINT('',(30.5,-21.,12.));
#34 = LINE('',#35,#36);
#35 = CARTESIAN_POINT('',(30.5,-21.,11.));
#36 = VECTOR('',#37,1.);
#37 = DIRECTION('',(0.,0.,1.));
#38 = ORIENTED_EDGE('',*,*,#39,.T.);
#39 = EDGE_CURVE('',#32,#40,#42,.T.);
#40 = VERTEX_POINT('',#41);
#41 = CARTESIAN_POINT('',(30.5,21.,12.));
#42 = LINE('',#43,#44);
#43 = CARTESIAN_POINT('',(30.5,-22.5,12.));
#44 = VECTOR('',#45,1.);
#45 = DIRECTION('',(0.,1.,0.));
#46 = ORIENTED_EDGE('',*,*,#47,.F.);
#47 = EDGE_CURVE('',#24,#40,#48,.T.);
#48 = LINE('',#49,#50);
#49 = CARTESIAN_POINT('',(30.5,21.,11.));
#50 = VECTOR('',#51,1.);
#51 = DIRECTION('',(0.,0.,1.));
#52 = PLANE('',#53);
#53 = AXIS2_PLACEMENT_3D('',#54,#55,#56);
#54 = CARTESIAN_POINT('',(30.5,-22.5,11.));
#55 = DIRECTION('',(-1.,0.,0.));
#56 = DIRECTION('',(0.,1.,0.));
#57 = ADVANCED_FACE('',(#58,#119,#169,#180,#191,#202,#252,#263,#345),
  #395,.T.);
#58 = FACE_BOUND('',#59,.T.);
#59 = EDGE_LOOP('',(#60,#61,#70,#78,#87,#95,#104,#112));
#60 = ORIENTED_EDGE('',*,*,#21,.F.);
#61 = ORIENTED_EDGE('',*,*,#62,.T.);
#62 = EDGE_CURVE('',#22,#63,#65,.T.);
#63 = VERTEX_POINT('',#64);
#64 = CARTESIAN_POINT('',(29.,-22.5,11.));
#65 = CIRCLE('',#66,1.5);
#66 = AXIS2_PLACEMENT_3D('',#67,#68,#69);
#67 = CARTESIAN_POINT('',(29.,-21.,11.));
#68 = DIRECTION('',(-0.,-0.,-1.));
#69 = DIRECTION('',(0.,-1.,0.));
#70 = ORIENTED_EDGE('',*,*,#71,.F.);
#71 = EDGE_CURVE('',#72,#63,#74,.T.);
#72 = VERTEX_POINT('',#73);
#73 = CARTESIAN_POINT('',(-29.,-22.5,11.));
#74 = LINE('',#75,#76);
#75 = CARTESIAN_POINT('',(-30.5,-22.5,11.));
#76 = VECTOR('',#77,1.);
#77 = DIRECTION('',(1.,0.,0.));
#78 = ORIENTED_EDGE('',*,*,#79,.T.);
#79 = EDGE_CURVE('',#72,#80,#82,.T.);
#80 = VERTEX_POINT('',#81);
#81 = CARTESIAN_POINT('',(-30.5,-21.,11.));
#82 = CIRCLE('',#83,1.5);
#83 = AXIS2_PLACEMENT_3D('',#84,#85,#86);
#84 = CARTESIAN_POINT('',(-29.,-21.,11.));
#85 = DIRECTION('',(-0.,-0.,-1.));
#86 = DIRECTION('',(0.,-1.,0.));
#87 = ORIENTED_EDGE('',*,*,#88,.F.);
#88 = EDGE_CURVE('',#89,#80,#91,.T.);
#89 = VERTEX_POINT('',#90);
#90 = CARTESIAN_POINT('',(-30.5,21.,11.));
#91 = LINE('',#92,#93);
#92 = CARTESIAN_POINT('',(-30.5,22.5,11.));
#93 = VECTOR('',#94,1.);
#94 = DIRECTION('',(0.,-1.,0.));
#95 = ORIENTED_EDGE('',*,*,#96,.F.);
#96 = EDGE_CURVE('',#97,#89,#99,.T.);
#97 = VERTEX_POINT('',#98);
#98 = CARTESIAN_POINT('',(-29.,22.5,11.));
#99 = CIRCLE('',#100,1.5);
#100 = AXIS2_PLACEMENT_3D('',#101,#102,#103);
#101 = CARTESIAN_POINT('',(-29.,21.,11.));
#102 = DIRECTION('',(-0.,0.,1.));
#103 = DIRECTION('',(0.,-1.,0.));
#104 = ORIENTED_EDGE('',*,*,#105,.T.);
#105 = EDGE_CURVE('',#97,#106,#108,.T.);
#106 = VERTEX_POINT('',#107);
#107 = CARTESIAN_POINT('',(29.,22.5,11.));
#108 = LINE('',#109,#110);
#109 = CARTESIAN_POINT('',(-30.5,22.5,11.));
#110 = VECTOR('',#111,1.);
#111 = DIRECTION('',(1.,0.,0.));
#112 = ORIENTED_EDGE('',*,*,#113,.F.);
#113 = EDGE_CURVE('',#24,#106,#114,.T.);
#114 = CIRCLE('',#115,1.5);
#115 = AXIS2_PLACEMENT_3D('',#116,#117,#118);
#116 = CARTESIAN_POINT('',(29.,21.,11.));
#117 = DIRECTION('',(-0.,0.,1.));
#118 = DIRECTION('',(0.,-1.,0.));
#119 = FACE_BOUND('',#120,.T.);
#120 = EDGE_LOOP('',(#121,#131,#139,#147,#155,#163));
#121 = ORIENTED_EDGE('',*,*,#122,.F.);
#122 = EDGE_CURVE('',#123,#125,#127,.T.);
#123 = VERTEX_POINT('',#124);
#124 = CARTESIAN_POINT('',(28.,-19.99999999998,11.));
#125 = VERTEX_POINT('',#126);
#126 = CARTESIAN_POINT('',(28.,-17.5,11.));
#127 = LINE('',#128,#129);
#128 = CARTESIAN_POINT('',(28.,-19.99999999998,11.));
#129 = VECTOR('',#130,1.);
#130 = DIRECTION('',(0.,1.,0.));
#131 = ORIENTED_EDGE('',*,*,#132,.F.);
#132 = EDGE_CURVE('',#133,#123,#135,.T.);
#133 = VERTEX_POINT('',#134);
#134 = CARTESIAN_POINT('',(25.500000000011,-19.99999999998,11.));
#135 = LINE('',#136,#137);
#136 = CARTESIAN_POINT('',(25.500000000011,-19.99999999998,11.));
#137 = VECTOR('',#138,1.);
#138 = DIRECTION('',(1.,0.,0.));
#139 = ORIENTED_EDGE('',*,*,#140,.F.);
#140 = EDGE_CURVE('',#141,#133,#143,.T.);
#141 = VERTEX_POINT('',#142);
#142 = CARTESIAN_POINT('',(25.500000000011,-21.,11.));
#143 = LINE('',#144,#145);
#144 = CARTESIAN_POINT('',(25.500000000011,-21.,11.));
#145 = VECTOR('',#146,1.);
#146 = DIRECTION('',(0.,1.,0.));
#147 = ORIENTED_EDGE('',*,*,#148,.F.);
#148 = EDGE_CURVE('',#149,#141,#151,.T.);
#149 = VERTEX_POINT('',#150);
#150 = CARTESIAN_POINT('',(29.,-21.,11.));
#151 = LINE('',#152,#153);
#152 = CARTESIAN_POINT('',(29.,-21.,11.));
#153 = VECTOR('',#154,1.);
#154 = DIRECTION('',(-1.,0.,0.));
#155 = ORIENTED_EDGE('',*,*,#156,.F.);
#156 = EDGE_CURVE('',#157,#149,#159,.T.);
#157 = VERTEX_POINT('',#158);
#158 = CARTESIAN_POINT('',(29.,-17.5,11.));
#159 = LINE('',#160,#161);
#160 = CARTESIAN_POINT('',(29.,-17.5,11.));
#161 = VECTOR('',#162,1.);
#162 = DIRECTION('',(0.,-1.,0.));
#163 = ORIENTED_EDGE('',*,*,#164,.F.);
#164 = EDGE_CURVE('',#125,#157,#165,.T.);
#165 = LINE('',#166,#167);
#166 = CARTESIAN_POINT('',(28.,-17.5,11.));
#167 = VECTOR('',#168,1.);
#168 = DIRECTION('',(1.,0.,0.));
#169 = FACE_BOUND('',#170,.T.);
#170 = EDGE_LOOP('',(#171));
#171 = ORIENTED_EDGE('',*,*,#172,.T.);
#172 = EDGE_CURVE('',#173,#173,#175,.T.);
#173 = VERTEX_POINT('',#174);
#174 = CARTESIAN_POINT('',(9.900000000009,-17.,11.));
#175 = CIRCLE('',#176,2.);
#176 = AXIS2_PLACEMENT_3D('',#177,#178,#179);
#177 = CARTESIAN_POINT('',(7.900000000009,-17.,11.));
#178 = DIRECTION('',(0.,0.,1.));
#179 = DIRECTION('',(1.,0.,0.));
#180 = FACE_BOUND('',#181,.T.);
#181 = EDGE_LOOP('',(#182));
#182 = ORIENTED_EDGE('',*,*,#183,.T.);
#183 = EDGE_CURVE('',#184,#184,#186,.T.);
#184 = VERTEX_POINT('',#185);
#185 = CARTESIAN_POINT('',(-9.999999999705E-02,-17.,11.));
#186 = CIRCLE('',#187,2.);
#187 = AXIS2_PLACEMENT_3D('',#188,#189,#190);
#188 = CARTESIAN_POINT('',(-2.099999999997,-17.,11.));
#189 = DIRECTION('',(0.,0.,1.));
#190 = DIRECTION('',(1.,0.,0.));
#191 = FACE_BOUND('',#192,.T.);
#192 = EDGE_LOOP('',(#193));
#193 = ORIENTED_EDGE('',*,*,#194,.T.);
#194 = EDGE_CURVE('',#195,#195,#197,.T.);
#195 = VERTEX_POINT('',#196);
#196 = CARTESIAN_POINT('',(-10.1,-17.,11.));
#197 = CIRCLE('',#198,2.);
#198 = AXIS2_PLACEMENT_3D('',#199,#200,#201);
#199 = CARTESIAN_POINT('',(-12.1,-17.,11.));
#200 = DIRECTION('',(0.,0.,1.));
#201 = DIRECTION('',(1.,0.,0.));
#202 = FACE_BOUND('',#203,.T.);
#203 = EDGE_LOOP('',(#204,#214,#222,#230,#238,#246));
#204 = ORIENTED_EDGE('',*,*,#205,.T.);
#205 = EDGE_CURVE('',#206,#208,#210,.T.);
#206 = VERTEX_POINT('',#207);
#207 = CARTESIAN_POINT('',(-25.50000000001,-19.99999999998,11.));
#208 = VERTEX_POINT('',#209);
#209 = CARTESIAN_POINT('',(-28.,-19.99999999998,11.));
#210 = LINE('',#211,#212);
#211 = CARTESIAN_POINT('',(-25.50000000001,-19.99999999998,11.));
#212 = VECTOR('',#213,1.);
#213 = DIRECTION('',(-1.,-0.,-0.));
#214 = ORIENTED_EDGE('',*,*,#215,.T.);
#215 = EDGE_CURVE('',#208,#216,#218,.T.);
#216 = VERTEX_POINT('',#217);
#217 = CARTESIAN_POINT('',(-28.,-17.5,11.));
#218 = LINE('',#219,#220);
#219 = CARTESIAN_POINT('',(-28.,-19.99999999998,11.));
#220 = VECTOR('',#221,1.);
#221 = DIRECTION('',(0.,1.,0.));
#222 = ORIENTED_EDGE('',*,*,#223,.T.);
#223 = EDGE_CURVE('',#216,#224,#226,.T.);
#224 = VERTEX_POINT('',#225);
#225 = CARTESIAN_POINT('',(-29.,-17.5,11.));
#226 = LINE('',#227,#228);
#227 = CARTESIAN_POINT('',(-28.,-17.5,11.));
#228 = VECTOR('',#229,1.);
#229 = DIRECTION('',(-1.,-0.,-0.));
#230 = ORIENTED_EDGE('',*,*,#231,.T.);
#231 = EDGE_CURVE('',#224,#232,#234,.T.);
#232 = VERTEX_POINT('',#233);
#233 = CARTESIAN_POINT('',(-29.,-21.,11.));
#234 = LINE('',#235,#236);
#235 = CARTESIAN_POINT('',(-29.,-17.5,11.));
#236 = VECTOR('',#237,1.);
#237 = DIRECTION('',(-0.,-1.,-0.));
#238 = ORIENTED_EDGE('',*,*,#239,.T.);
#239 = EDGE_CURVE('',#232,#240,#242,.T.);
#240 = VERTEX_POINT('',#241);
#241 = CARTESIAN_POINT('',(-25.50000000001,-21.,11.));
#242 = LINE('',#243,#244);
#243 = CARTESIAN_POINT('',(-29.,-21.,11.));
#244 = VECTOR('',#245,1.);
#245 = DIRECTION('',(1.,0.,0.));
#246 = ORIENTED_EDGE('',*,*,#247,.T.);
#247 = EDGE_CURVE('',#240,#206,#248,.T.);
#248 = LINE('',#249,#250);
#249 = CARTESIAN_POINT('',(-25.50000000001,-21.,11.));
#250 = VECTOR('',#251,1.);
#251 = DIRECTION('',(0.,1.,0.));
#252 = FACE_BOUND('',#253,.T.);
#253 = EDGE_LOOP('',(#254));
#254 = ORIENTED_EDGE('',*,*,#255,.T.);
#255 = EDGE_CURVE('',#256,#256,#258,.T.);
#256 = VERTEX_POINT('',#257);
#257 = CARTESIAN_POINT('',(-20.1,-17.,11.));
#258 = CIRCLE('',#259,2.);
#259 = AXIS2_PLACEMENT_3D('',#260,#261,#262);
#260 = CARTESIAN_POINT('',(-22.1,-17.,11.));
#261 = DIRECTION('',(0.,0.,1.));
#262 = DIRECTION('',(1.,0.,0.));
#263 = FACE_BOUND('',#264,.T.);
#264 = EDGE_LOOP('',(#265,#275,#283,#291,#299,#307,#315,#323,#331,#339)
  );
#265 = ORIENTED_EDGE('',*,*,#266,.T.);
#266 = EDGE_CURVE('',#267,#269,#271,.T.);
#267 = VERTEX_POINT('',#268);
#268 = CARTESIAN_POINT('',(25.500000000011,21.,11.));
#269 = VERTEX_POINT('',#270);
#270 = CARTESIAN_POINT('',(25.5,21.5,11.));
#271 = LINE('',#272,#273);
#272 = CARTESIAN_POINT('',(25.5,-12.7,11.));
#273 = VECTOR('',#274,1.);
#274 = DIRECTION('',(0.,1.,0.));
#275 = ORIENTED_EDGE('',*,*,#276,.T.);
#276 = EDGE_CURVE('',#269,#277,#279,.T.);
#277 = VERTEX_POINT('',#278);
#278 = CARTESIAN_POINT('',(-18.5,21.5,11.));
#279 = LINE('',#280,#281);
#280 = CARTESIAN_POINT('',(25.5,21.5,11.));
#281 = VECTOR('',#282,1.);
#282 = DIRECTION('',(-1.,0.,0.));
#283 = ORIENTED_EDGE('',*,*,#284,.T.);
#284 = EDGE_CURVE('',#277,#285,#287,.T.);
#285 = VERTEX_POINT('',#286);
#286 = CARTESIAN_POINT('',(-18.5,-12.7,11.));
#287 = LINE('',#288,#289);
#288 = CARTESIAN_POINT('',(-18.5,21.5,11.));
#289 = VECTOR('',#290,1.);
#290 = DIRECTION('',(0.,-1.,0.));
#291 = ORIENTED_EDGE('',*,*,#292,.T.);
#292 = EDGE_CURVE('',#285,#293,#295,.T.);
#293 = VERTEX_POINT('',#294);
#294 = CARTESIAN_POINT('',(25.5,-12.7,11.));
#295 = LINE('',#296,#297);
#296 = CARTESIAN_POINT('',(-18.5,-12.7,11.));
#297 = VECTOR('',#298,1.);
#298 = DIRECTION('',(1.,0.,0.));
#299 = ORIENTED_EDGE('',*,*,#300,.T.);
#300 = EDGE_CURVE('',#293,#301,#303,.T.);
#301 = VERTEX_POINT('',#302);
#302 = CARTESIAN_POINT('',(25.500000000011,19.999999999989,11.));
#303 = LINE('',#304,#305);
#304 = CARTESIAN_POINT('',(25.5,-12.7,11.));
#305 = VECTOR('',#306,1.);
#306 = DIRECTION('',(0.,1.,0.));
#307 = ORIENTED_EDGE('',*,*,#308,.T.);
#308 = EDGE_CURVE('',#301,#309,#311,.T.);
#309 = VERTEX_POINT('',#310);
#310 = CARTESIAN_POINT('',(28.,19.999999999989,11.));
#311 = LINE('',#312,#313);
#312 = CARTESIAN_POINT('',(25.500000000011,19.999999999989,11.));
#313 = VECTOR('',#314,1.);
#314 = DIRECTION('',(1.,0.,0.));
#315 = ORIENTED_EDGE('',*,*,#316,.T.);
#316 = EDGE_CURVE('',#309,#317,#319,.T.);
#317 = VERTEX_POINT('',#318);
#318 = CARTESIAN_POINT('',(28.,17.5,11.));
#319 = LINE('',#320,#321);
#320 = CARTESIAN_POINT('',(28.,19.999999999989,11.));
#321 = VECTOR('',#322,1.);
#322 = DIRECTION('',(-0.,-1.,-0.));
#323 = ORIENTED_EDGE('',*,*,#324,.T.);
#324 = EDGE_CURVE('',#317,#325,#327,.T.);
#325 = VERTEX_POINT('',#326);
#326 = CARTESIAN_POINT('',(29.,17.5,11.));
#327 = LINE('',#328,#329);
#328 = CARTESIAN_POINT('',(28.,17.5,11.));
#329 = VECTOR('',#330,1.);
#330 = DIRECTION('',(1.,0.,0.));
#331 = ORIENTED_EDGE('',*,*,#332,.T.);
#332 = EDGE_CURVE('',#325,#333,#335,.T.);
#333 = VERTEX_POINT('',#334);
#334 = CARTESIAN_POINT('',(29.,21.,11.));
#335 = LINE('',#336,#337);
#336 = CARTESIAN_POINT('',(29.,17.5,11.));
#337 = VECTOR('',#338,1.);
#338 = DIRECTION('',(0.,1.,0.));
#339 = ORIENTED_EDGE('',*,*,#340,.T.);
#340 = EDGE_CURVE('',#333,#267,#341,.T.);
#341 = LINE('',#342,#343);
#342 = CARTESIAN_POINT('',(29.,21.,11.));
#343 = VECTOR('',#344,1.);
#344 = DIRECTION('',(-1.,-0.,-0.));
#345 = FACE_BOUND('',#346,.T.);
#346 = EDGE_LOOP('',(#347,#357,#365,#373,#381,#389));
#347 = ORIENTED_EDGE('',*,*,#348,.F.);
#348 = EDGE_CURVE('',#349,#351,#353,.T.);
#349 = VERTEX_POINT('',#350);
#350 = CARTESIAN_POINT('',(-28.,19.999999999989,11.));
#351 = VERTEX_POINT('',#352);
#352 = CARTESIAN_POINT('',(-28.,17.5,11.));
#353 = LINE('',#354,#355);
#354 = CARTESIAN_POINT('',(-28.,19.999999999989,11.));
#355 = VECTOR('',#356,1.);
#356 = DIRECTION('',(0.,-1.,0.));
#357 = ORIENTED_EDGE('',*,*,#358,.F.);
#358 = EDGE_CURVE('',#359,#349,#361,.T.);
#359 = VERTEX_POINT('',#360);
#360 = CARTESIAN_POINT('',(-25.50000000001,19.999999999989,11.));
#361 = LINE('',#362,#363);
#362 = CARTESIAN_POINT('',(-25.50000000001,19.999999999989,11.));
#363 = VECTOR('',#364,1.);
#364 = DIRECTION('',(-1.,0.,0.));
#365 = ORIENTED_EDGE('',*,*,#366,.F.);
#366 = EDGE_CURVE('',#367,#359,#369,.T.);
#367 = VERTEX_POINT('',#368);
#368 = CARTESIAN_POINT('',(-25.50000000001,21.,11.));
#369 = LINE('',#370,#371);
#370 = CARTESIAN_POINT('',(-25.50000000001,21.,11.));
#371 = VECTOR('',#372,1.);
#372 = DIRECTION('',(0.,-1.,0.));
#373 = ORIENTED_EDGE('',*,*,#374,.F.);
#374 = EDGE_CURVE('',#375,#367,#377,.T.);
#375 = VERTEX_POINT('',#376);
#376 = CARTESIAN_POINT('',(-29.,21.,11.));
#377 = LINE('',#378,#379);
#378 = CARTESIAN_POINT('',(-29.,21.,11.));
#379 = VECTOR('',#380,1.);
#380 = DIRECTION('',(1.,0.,0.));
#381 = ORIENTED_EDGE('',*,*,#382,.F.);
#382 = EDGE_CURVE('',#383,#375,#385,.T.);
#383 = VERTEX_POINT('',#384);
#384 = CARTESIAN_POINT('',(-29.,17.5,11.));
#385 = LINE('',#386,#387);
#386 = CARTESIAN_POINT('',(-29.,17.5,11.));
#387 = VECTOR('',#388,1.);
#388 = DIRECTION('',(0.,1.,0.));
#389 = ORIENTED_EDGE('',*,*,#390,.F.);
#390 = EDGE_CURVE('',#351,#383,#391,.T.);
#391 = LINE('',#392,#393);
#392 = CARTESIAN_POINT('',(-28.,17.5,11.));
#393 = VECTOR('',#394,1.);
#394 = DIRECTION('',(-1.,0.,0.));
#395 = PLANE('',#396);
#396 = AXIS2_PLACEMENT_3D('',#397,#398,#399);
#397 = CARTESIAN_POINT('',(4.290069347986E-15,0.,11.));
#398 = DIRECTION('',(-0.,-0.,-1.));
#399 = DIRECTION('',(-1.,0.,0.));
#400 = ADVANCED_FACE('',(#401),#420,.T.);
#401 = FACE_BOUND('',#402,.F.);
#402 = EDGE_LOOP('',(#403,#404,#412,#419));
#403 = ORIENTED_EDGE('',*,*,#62,.T.);
#404 = ORIENTED_EDGE('',*,*,#405,.T.);
#405 = EDGE_CURVE('',#63,#406,#408,.T.);
#406 = VERTEX_POINT('',#407);
#407 = CARTESIAN_POINT('',(29.,-22.5,12.));
#408 = LINE('',#409,#410);
#409 = CARTESIAN_POINT('',(29.,-22.5,11.));
#410 = VECTOR('',#411,1.);
#411 = DIRECTION('',(0.,0.,1.));
#412 = ORIENTED_EDGE('',*,*,#413,.F.);
#413 = EDGE_CURVE('',#32,#406,#414,.T.);
#414 = CIRCLE('',#415,1.5);
#415 = AXIS2_PLACEMENT_3D('',#416,#417,#418);
#416 = CARTESIAN_POINT('',(29.,-21.,12.));
#417 = DIRECTION('',(-0.,-0.,-1.));
#418 = DIRECTION('',(0.,-1.,0.));
#419 = ORIENTED_EDGE('',*,*,#31,.F.);
#420 = CYLINDRICAL_SURFACE('',#421,1.5);
#421 = AXIS2_PLACEMENT_3D('',#422,#423,#424);
#422 = CARTESIAN_POINT('',(29.,-21.,11.));
#423 = DIRECTION('',(0.,0.,1.));
#424 = DIRECTION('',(1.,0.,0.));
#425 = ADVANCED_FACE('',(#426),#445,.T.);
#426 = FACE_BOUND('',#427,.T.);
#427 = EDGE_LOOP('',(#428,#429,#437,#444));
#428 = ORIENTED_EDGE('',*,*,#113,.T.);
#429 = ORIENTED_EDGE('',*,*,#430,.T.);
#430 = EDGE_CURVE('',#106,#431,#433,.T.);
#431 = VERTEX_POINT('',#432);
#432 = CARTESIAN_POINT('',(29.,22.5,12.));
#433 = LINE('',#434,#435);
#434 = CARTESIAN_POINT('',(29.,22.5,11.));
#435 = VECTOR('',#436,1.);
#436 = DIRECTION('',(0.,0.,1.));
#437 = ORIENTED_EDGE('',*,*,#438,.F.);
#438 = EDGE_CURVE('',#40,#431,#439,.T.);
#439 = CIRCLE('',#440,1.5);
#440 = AXIS2_PLACEMENT_3D('',#441,#442,#443);
#441 = CARTESIAN_POINT('',(29.,21.,12.));
#442 = DIRECTION('',(-0.,0.,1.));
#443 = DIRECTION('',(0.,-1.,0.));
#444 = ORIENTED_EDGE('',*,*,#47,.F.);
#445 = CYLINDRICAL_SURFACE('',#446,1.5);
#446 = AXIS2_PLACEMENT_3D('',#447,#448,#449);
#447 = CARTESIAN_POINT('',(29.,21.,11.));
#448 = DIRECTION('',(0.,0.,1.));
#449 = DIRECTION('',(1.,0.,0.));
#450 = ADVANCED_FACE('',(#451,#496,#530,#541,#552,#563),#574,.T.);
#451 = FACE_BOUND('',#452,.T.);
#452 = EDGE_LOOP('',(#453,#454,#455,#463,#472,#480,#489,#495));
#453 = ORIENTED_EDGE('',*,*,#39,.T.);
#454 = ORIENTED_EDGE('',*,*,#438,.T.);
#455 = ORIENTED_EDGE('',*,*,#456,.F.);
#456 = EDGE_CURVE('',#457,#431,#459,.T.);
#457 = VERTEX_POINT('',#458);
#458 = CARTESIAN_POINT('',(-29.,22.5,12.));
#459 = LINE('',#460,#461);
#460 = CARTESIAN_POINT('',(-30.5,22.5,12.));
#461 = VECTOR('',#462,1.);
#462 = DIRECTION('',(1.,0.,0.));
#463 = ORIENTED_EDGE('',*,*,#464,.T.);
#464 = EDGE_CURVE('',#457,#465,#467,.T.);
#465 = VERTEX_POINT('',#466);
#466 = CARTESIAN_POINT('',(-30.5,21.,12.));
#467 = CIRCLE('',#468,1.5);
#468 = AXIS2_PLACEMENT_3D('',#469,#470,#471);
#469 = CARTESIAN_POINT('',(-29.,21.,12.));
#470 = DIRECTION('',(-0.,0.,1.));
#471 = DIRECTION('',(0.,-1.,0.));
#472 = ORIENTED_EDGE('',*,*,#473,.T.);
#473 = EDGE_CURVE('',#465,#474,#476,.T.);
#474 = VERTEX_POINT('',#475);
#475 = CARTESIAN_POINT('',(-30.5,-21.,12.));
#476 = LINE('',#477,#478);
#477 = CARTESIAN_POINT('',(-30.5,22.5,12.));
#478 = VECTOR('',#479,1.);
#479 = DIRECTION('',(0.,-1.,0.));
#480 = ORIENTED_EDGE('',*,*,#481,.F.);
#481 = EDGE_CURVE('',#482,#474,#484,.T.);
#482 = VERTEX_POINT('',#483);
#483 = CARTESIAN_POINT('',(-29.,-22.5,12.));
#484 = CIRCLE('',#485,1.5);
#485 = AXIS2_PLACEMENT_3D('',#486,#487,#488);
#486 = CARTESIAN_POINT('',(-29.,-21.,12.));
#487 = DIRECTION('',(-0.,-0.,-1.));
#488 = DIRECTION('',(0.,-1.,0.));
#489 = ORIENTED_EDGE('',*,*,#490,.T.);
#490 = EDGE_CURVE('',#482,#406,#491,.T.);
#491 = LINE('',#492,#493);
#492 = CARTESIAN_POINT('',(-30.5,-22.5,12.));
#493 = VECTOR('',#494,1.);
#494 = DIRECTION('',(1.,0.,0.));
#495 = ORIENTED_EDGE('',*,*,#413,.F.);
#496 = FACE_BOUND('',#497,.T.);
#497 = EDGE_LOOP('',(#498,#508,#516,#524));
#498 = ORIENTED_EDGE('',*,*,#499,.F.);
#499 = EDGE_CURVE('',#500,#502,#504,.T.);
#500 = VERTEX_POINT('',#501);
#501 = CARTESIAN_POINT('',(25.5,21.5,12.));
#502 = VERTEX_POINT('',#503);
#503 = CARTESIAN_POINT('',(-18.5,21.5,12.));
#504 = LINE('',#505,#506);
#505 = CARTESIAN_POINT('',(25.5,21.5,12.));
#506 = VECTOR('',#507,1.);
#507 = DIRECTION('',(-1.,0.,0.));
#508 = ORIENTED_EDGE('',*,*,#509,.F.);
#509 = EDGE_CURVE('',#510,#500,#512,.T.);
#510 = VERTEX_POINT('',#511);
#511 = CARTESIAN_POINT('',(25.5,-12.7,12.));
#512 = LINE('',#513,#514);
#513 = CARTESIAN_POINT('',(25.5,-12.7,12.));
#514 = VECTOR('',#515,1.);
#515 = DIRECTION('',(0.,1.,0.));
#516 = ORIENTED_EDGE('',*,*,#517,.F.);
#517 = EDGE_CURVE('',#518,#510,#520,.T.);
#518 = VERTEX_POINT('',#519);
#519 = CARTESIAN_POINT('',(-18.5,-12.7,12.));
#520 = LINE('',#521,#522);
#521 = CARTESIAN_POINT('',(-18.5,-12.7,12.));
#522 = VECTOR('',#523,1.);
#523 = DIRECTION('',(1.,0.,0.));
#524 = ORIENTED_EDGE('',*,*,#525,.F.);
#525 = EDGE_CURVE('',#502,#518,#526,.T.);
#526 = LINE('',#527,#528);
#527 = CARTESIAN_POINT('',(-18.5,21.5,12.));
#528 = VECTOR('',#529,1.);
#529 = DIRECTION('',(0.,-1.,0.));
#530 = FACE_BOUND('',#531,.T.);
#531 = EDGE_LOOP('',(#532));
#532 = ORIENTED_EDGE('',*,*,#533,.F.);
#533 = EDGE_CURVE('',#534,#534,#536,.T.);
#534 = VERTEX_POINT('',#535);
#535 = CARTESIAN_POINT('',(9.900000000009,-17.,12.));
#536 = CIRCLE('',#537,2.);
#537 = AXIS2_PLACEMENT_3D('',#538,#539,#540);
#538 = CARTESIAN_POINT('',(7.900000000009,-17.,12.));
#539 = DIRECTION('',(0.,0.,1.));
#540 = DIRECTION('',(1.,0.,0.));
#541 = FACE_BOUND('',#542,.T.);
#542 = EDGE_LOOP('',(#543));
#543 = ORIENTED_EDGE('',*,*,#544,.F.);
#544 = EDGE_CURVE('',#545,#545,#547,.T.);
#545 = VERTEX_POINT('',#546);
#546 = CARTESIAN_POINT('',(-9.999999999705E-02,-17.,12.));
#547 = CIRCLE('',#548,2.);
#548 = AXIS2_PLACEMENT_3D('',#549,#550,#551);
#549 = CARTESIAN_POINT('',(-2.099999999997,-17.,12.));
#550 = DIRECTION('',(0.,0.,1.));
#551 = DIRECTION('',(1.,0.,0.));
#552 = FACE_BOUND('',#553,.T.);
#553 = EDGE_LOOP('',(#554));
#554 = ORIENTED_EDGE('',*,*,#555,.F.);
#555 = EDGE_CURVE('',#556,#556,#558,.T.);
#556 = VERTEX_POINT('',#557);
#557 = CARTESIAN_POINT('',(-10.1,-17.,12.));
#558 = CIRCLE('',#559,2.);
#559 = AXIS2_PLACEMENT_3D('',#560,#561,#562);
#560 = CARTESIAN_POINT('',(-12.1,-17.,12.));
#561 = DIRECTION('',(0.,0.,1.));
#562 = DIRECTION('',(1.,0.,0.));
#563 = FACE_BOUND('',#564,.T.);
#564 = EDGE_LOOP('',(#565));
#565 = ORIENTED_EDGE('',*,*,#566,.F.);
#566 = EDGE_CURVE('',#567,#567,#569,.T.);
#567 = VERTEX_POINT('',#568);
#568 = CARTESIAN_POINT('',(-20.1,-17.,12.));
#569 = CIRCLE('',#570,2.);
#570 = AXIS2_PLACEMENT_3D('',#571,#572,#573);
#571 = CARTESIAN_POINT('',(-22.1,-17.,12.));
#572 = DIRECTION('',(0.,0.,1.));
#573 = DIRECTION('',(1.,0.,0.));
#574 = PLANE('',#575);
#575 = AXIS2_PLACEMENT_3D('',#576,#577,#578);
#576 = CARTESIAN_POINT('',(4.290069347986E-15,0.,12.));
#577 = DIRECTION('',(0.,0.,1.));
#578 = DIRECTION('',(1.,0.,0.));
#579 = ADVANCED_FACE('',(#580),#591,.F.);
#580 = FACE_BOUND('',#581,.F.);
#581 = EDGE_LOOP('',(#582,#583,#589,#590));
#582 = ORIENTED_EDGE('',*,*,#71,.F.);
#583 = ORIENTED_EDGE('',*,*,#584,.T.);
#584 = EDGE_CURVE('',#72,#482,#585,.T.);
#585 = LINE('',#586,#587);
#586 = CARTESIAN_POINT('',(-29.,-22.5,11.));
#587 = VECTOR('',#588,1.);
#588 = DIRECTION('',(0.,0.,1.));
#589 = ORIENTED_EDGE('',*,*,#490,.T.);
#590 = ORIENTED_EDGE('',*,*,#405,.F.);
#591 = PLANE('',#592);
#592 = AXIS2_PLACEMENT_3D('',#593,#594,#595);
#593 = CARTESIAN_POINT('',(-30.5,-22.5,11.));
#594 = DIRECTION('',(0.,1.,0.));
#595 = DIRECTION('',(1.,0.,0.));
#596 = ADVANCED_FACE('',(#597),#608,.T.);
#597 = FACE_BOUND('',#598,.T.);
#598 = EDGE_LOOP('',(#599,#600,#606,#607));
#599 = ORIENTED_EDGE('',*,*,#105,.F.);
#600 = ORIENTED_EDGE('',*,*,#601,.T.);
#601 = EDGE_CURVE('',#97,#457,#602,.T.);
#602 = LINE('',#603,#604);
#603 = CARTESIAN_POINT('',(-29.,22.5,11.));
#604 = VECTOR('',#605,1.);
#605 = DIRECTION('',(0.,0.,1.));
#606 = ORIENTED_EDGE('',*,*,#456,.T.);
#607 = ORIENTED_EDGE('',*,*,#430,.F.);
#608 = PLANE('',#609);
#609 = AXIS2_PLACEMENT_3D('',#610,#611,#612);
#610 = CARTESIAN_POINT('',(-30.5,22.5,11.));
#611 = DIRECTION('',(0.,1.,0.));
#612 = DIRECTION('',(1.,0.,0.));
#613 = ADVANCED_FACE('',(#614),#625,.T.);
#614 = FACE_BOUND('',#615,.F.);
#615 = EDGE_LOOP('',(#616,#617,#623,#624));
#616 = ORIENTED_EDGE('',*,*,#79,.T.);
#617 = ORIENTED_EDGE('',*,*,#618,.T.);
#618 = EDGE_CURVE('',#80,#474,#619,.T.);
#619 = LINE('',#620,#621);
#620 = CARTESIAN_POINT('',(-30.5,-21.,11.));
#621 = VECTOR('',#622,1.);
#622 = DIRECTION('',(0.,0.,1.));
#623 = ORIENTED_EDGE('',*,*,#481,.F.);
#624 = ORIENTED_EDGE('',*,*,#584,.F.);
#625 = CYLINDRICAL_SURFACE('',#626,1.5);
#626 = AXIS2_PLACEMENT_3D('',#627,#628,#629);
#627 = CARTESIAN_POINT('',(-29.,-21.,11.));
#628 = DIRECTION('',(0.,0.,1.));
#629 = DIRECTION('',(0.,-1.,0.));
#630 = ADVANCED_FACE('',(#631),#642,.T.);
#631 = FACE_BOUND('',#632,.T.);
#632 = EDGE_LOOP('',(#633,#634,#640,#641));
#633 = ORIENTED_EDGE('',*,*,#96,.T.);
#634 = ORIENTED_EDGE('',*,*,#635,.T.);
#635 = EDGE_CURVE('',#89,#465,#636,.T.);
#636 = LINE('',#637,#638);
#637 = CARTESIAN_POINT('',(-30.5,21.,11.));
#638 = VECTOR('',#639,1.);
#639 = DIRECTION('',(0.,0.,1.));
#640 = ORIENTED_EDGE('',*,*,#464,.F.);
#641 = ORIENTED_EDGE('',*,*,#601,.F.);
#642 = CYLINDRICAL_SURFACE('',#643,1.5);
#643 = AXIS2_PLACEMENT_3D('',#644,#645,#646);
#644 = CARTESIAN_POINT('',(-29.,21.,11.));
#645 = DIRECTION('',(0.,0.,1.));
#646 = DIRECTION('',(0.,1.,0.));
#647 = ADVANCED_FACE('',(#648),#654,.F.);
#648 = FACE_BOUND('',#649,.F.);
#649 = EDGE_LOOP('',(#650,#651,#652,#653));
#650 = ORIENTED_EDGE('',*,*,#88,.F.);
#651 = ORIENTED_EDGE('',*,*,#635,.T.);
#652 = ORIENTED_EDGE('',*,*,#473,.T.);
#653 = ORIENTED_EDGE('',*,*,#618,.F.);
#654 = PLANE('',#655);
#655 = AXIS2_PLACEMENT_3D('',#656,#657,#658);
#656 = CARTESIAN_POINT('',(-30.5,22.5,11.));
#657 = DIRECTION('',(1.,0.,0.));
#658 = DIRECTION('',(0.,-1.,0.));
#659 = ADVANCED_FACE('',(#660),#685,.F.);
#660 = FACE_BOUND('',#661,.F.);
#661 = EDGE_LOOP('',(#662,#670,#678,#684));
#662 = ORIENTED_EDGE('',*,*,#663,.T.);
#663 = EDGE_CURVE('',#123,#664,#666,.T.);
#664 = VERTEX_POINT('',#665);
#665 = CARTESIAN_POINT('',(28.,-19.99999999998,8.));
#666 = LINE('',#667,#668);
#667 = CARTESIAN_POINT('',(28.,-19.99999999998,11.));
#668 = VECTOR('',#669,1.);
#669 = DIRECTION('',(-0.,-0.,-1.));
#670 = ORIENTED_EDGE('',*,*,#671,.T.);
#671 = EDGE_CURVE('',#664,#672,#674,.T.);
#672 = VERTEX_POINT('',#673);
#673 = CARTESIAN_POINT('',(28.,-17.5,8.));
#674 = LINE('',#675,#676);
#675 = CARTESIAN_POINT('',(28.,-19.99999999998,8.));
#676 = VECTOR('',#677,1.);
#677 = DIRECTION('',(0.,1.,0.));
#678 = ORIENTED_EDGE('',*,*,#679,.F.);
#679 = EDGE_CURVE('',#125,#672,#680,.T.);
#680 = LINE('',#681,#682);
#681 = CARTESIAN_POINT('',(28.,-17.5,11.));
#682 = VECTOR('',#683,1.);
#683 = DIRECTION('',(-0.,-0.,-1.));
#684 = ORIENTED_EDGE('',*,*,#122,.F.);
#685 = PLANE('',#686);
#686 = AXIS2_PLACEMENT_3D('',#687,#688,#689);
#687 = CARTESIAN_POINT('',(28.,-19.99999999998,11.));
#688 = DIRECTION('',(1.,0.,0.));
#689 = DIRECTION('',(0.,1.,0.));
#690 = ADVANCED_FACE('',(#691),#709,.F.);
#691 = FACE_BOUND('',#692,.F.);
#692 = EDGE_LOOP('',(#693,#701,#707,#708));
#693 = ORIENTED_EDGE('',*,*,#694,.T.);
#694 = EDGE_CURVE('',#133,#695,#697,.T.);
#695 = VERTEX_POINT('',#696);
#696 = CARTESIAN_POINT('',(25.500000000011,-19.99999999998,8.));
#697 = LINE('',#698,#699);
#698 = CARTESIAN_POINT('',(25.500000000011,-19.99999999998,11.));
#699 = VECTOR('',#700,1.);
#700 = DIRECTION('',(-0.,-0.,-1.));
#701 = ORIENTED_EDGE('',*,*,#702,.T.);
#702 = EDGE_CURVE('',#695,#664,#703,.T.);
#703 = LINE('',#704,#705);
#704 = CARTESIAN_POINT('',(25.500000000011,-19.99999999998,8.));
#705 = VECTOR('',#706,1.);
#706 = DIRECTION('',(1.,0.,0.));
#707 = ORIENTED_EDGE('',*,*,#663,.F.);
#708 = ORIENTED_EDGE('',*,*,#132,.F.);
#709 = PLANE('',#710);
#710 = AXIS2_PLACEMENT_3D('',#711,#712,#713);
#711 = CARTESIAN_POINT('',(25.500000000011,-19.99999999998,11.));
#712 = DIRECTION('',(0.,-1.,0.));
#713 = DIRECTION('',(1.,0.,0.));
#714 = ADVANCED_FACE('',(#715),#733,.F.);
#715 = FACE_BOUND('',#716,.F.);
#716 = EDGE_LOOP('',(#717,#718,#726,#732));
#717 = ORIENTED_EDGE('',*,*,#679,.T.);
#718 = ORIENTED_EDGE('',*,*,#719,.T.);
#719 = EDGE_CURVE('',#672,#720,#722,.T.);
#720 = VERTEX_POINT('',#721);
#721 = CARTESIAN_POINT('',(29.,-17.5,8.));
#722 = LINE('',#723,#724);
#723 = CARTESIAN_POINT('',(28.,-17.5,8.));
#724 = VECTOR('',#725,1.);
#725 = DIRECTION('',(1.,0.,0.));
#726 = ORIENTED_EDGE('',*,*,#727,.F.);
#727 = EDGE_CURVE('',#157,#720,#728,.T.);
#728 = LINE('',#729,#730);
#729 = CARTESIAN_POINT('',(29.,-17.5,11.));
#730 = VECTOR('',#731,1.);
#731 = DIRECTION('',(-0.,-0.,-1.));
#732 = ORIENTED_EDGE('',*,*,#164,.F.);
#733 = PLANE('',#734);
#734 = AXIS2_PLACEMENT_3D('',#735,#736,#737);
#735 = CARTESIAN_POINT('',(28.,-17.5,11.));
#736 = DIRECTION('',(0.,-1.,0.));
#737 = DIRECTION('',(1.,0.,0.));
#738 = ADVANCED_FACE('',(#739),#757,.F.);
#739 = FACE_BOUND('',#740,.F.);
#740 = EDGE_LOOP('',(#741,#749,#755,#756));
#741 = ORIENTED_EDGE('',*,*,#742,.T.);
#742 = EDGE_CURVE('',#141,#743,#745,.T.);
#743 = VERTEX_POINT('',#744);
#744 = CARTESIAN_POINT('',(25.500000000011,-21.,8.));
#745 = LINE('',#746,#747);
#746 = CARTESIAN_POINT('',(25.500000000011,-21.,11.));
#747 = VECTOR('',#748,1.);
#748 = DIRECTION('',(-0.,-0.,-1.));
#749 = ORIENTED_EDGE('',*,*,#750,.T.);
#750 = EDGE_CURVE('',#743,#695,#751,.T.);
#751 = LINE('',#752,#753);
#752 = CARTESIAN_POINT('',(25.500000000011,-21.,8.));
#753 = VECTOR('',#754,1.);
#754 = DIRECTION('',(0.,1.,0.));
#755 = ORIENTED_EDGE('',*,*,#694,.F.);
#756 = ORIENTED_EDGE('',*,*,#140,.F.);
#757 = PLANE('',#758);
#758 = AXIS2_PLACEMENT_3D('',#759,#760,#761);
#759 = CARTESIAN_POINT('',(25.500000000011,-21.,11.));
#760 = DIRECTION('',(1.,0.,0.));
#761 = DIRECTION('',(0.,1.,0.));
#762 = ADVANCED_FACE('',(#763),#781,.F.);
#763 = FACE_BOUND('',#764,.F.);
#764 = EDGE_LOOP('',(#765,#766,#774,#780));
#765 = ORIENTED_EDGE('',*,*,#727,.T.);
#766 = ORIENTED_EDGE('',*,*,#767,.T.);
#767 = EDGE_CURVE('',#720,#768,#770,.T.);
#768 = VERTEX_POINT('',#769);
#769 = CARTESIAN_POINT('',(29.,-21.,8.));
#770 = LINE('',#771,#772);
#771 = CARTESIAN_POINT('',(29.,-17.5,8.));
#772 = VECTOR('',#773,1.);
#773 = DIRECTION('',(0.,-1.,0.));
#774 = ORIENTED_EDGE('',*,*,#775,.F.);
#775 = EDGE_CURVE('',#149,#768,#776,.T.);
#776 = LINE('',#777,#778);
#777 = CARTESIAN_POINT('',(29.,-21.,11.));
#778 = VECTOR('',#779,1.);
#779 = DIRECTION('',(-0.,-0.,-1.));
#780 = ORIENTED_EDGE('',*,*,#156,.F.);
#781 = PLANE('',#782);
#782 = AXIS2_PLACEMENT_3D('',#783,#784,#785);
#783 = CARTESIAN_POINT('',(29.,-17.5,11.));
#784 = DIRECTION('',(-1.,0.,0.));
#785 = DIRECTION('',(0.,-1.,0.));
#786 = ADVANCED_FACE('',(#787),#798,.F.);
#787 = FACE_BOUND('',#788,.F.);
#788 = EDGE_LOOP('',(#789,#790,#796,#797));
#789 = ORIENTED_EDGE('',*,*,#775,.T.);
#790 = ORIENTED_EDGE('',*,*,#791,.T.);
#791 = EDGE_CURVE('',#768,#743,#792,.T.);
#792 = LINE('',#793,#794);
#793 = CARTESIAN_POINT('',(29.,-21.,8.));
#794 = VECTOR('',#795,1.);
#795 = DIRECTION('',(-1.,0.,0.));
#796 = ORIENTED_EDGE('',*,*,#742,.F.);
#797 = ORIENTED_EDGE('',*,*,#148,.F.);
#798 = PLANE('',#799);
#799 = AXIS2_PLACEMENT_3D('',#800,#801,#802);
#800 = CARTESIAN_POINT('',(29.,-21.,11.));
#801 = DIRECTION('',(0.,1.,0.));
#802 = DIRECTION('',(-1.,0.,0.));
#803 = ADVANCED_FACE('',(#804),#815,.F.);
#804 = FACE_BOUND('',#805,.T.);
#805 = EDGE_LOOP('',(#806,#812,#813,#814));
#806 = ORIENTED_EDGE('',*,*,#807,.T.);
#807 = EDGE_CURVE('',#173,#534,#808,.T.);
#808 = LINE('',#809,#810);
#809 = CARTESIAN_POINT('',(9.900000000009,-17.,11.));
#810 = VECTOR('',#811,1.);
#811 = DIRECTION('',(0.,0.,1.));
#812 = ORIENTED_EDGE('',*,*,#533,.T.);
#813 = ORIENTED_EDGE('',*,*,#807,.F.);
#814 = ORIENTED_EDGE('',*,*,#172,.F.);
#815 = CYLINDRICAL_SURFACE('',#816,2.);
#816 = AXIS2_PLACEMENT_3D('',#817,#818,#819);
#817 = CARTESIAN_POINT('',(7.900000000009,-17.,11.));
#818 = DIRECTION('',(-0.,-0.,-1.));
#819 = DIRECTION('',(1.,0.,0.));
#820 = ADVANCED_FACE('',(#821),#832,.F.);
#821 = FACE_BOUND('',#822,.T.);
#822 = EDGE_LOOP('',(#823,#829,#830,#831));
#823 = ORIENTED_EDGE('',*,*,#824,.T.);
#824 = EDGE_CURVE('',#184,#545,#825,.T.);
#825 = LINE('',#826,#827);
#826 = CARTESIAN_POINT('',(-9.999999999705E-02,-17.,11.));
#827 = VECTOR('',#828,1.);
#828 = DIRECTION('',(0.,0.,1.));
#829 = ORIENTED_EDGE('',*,*,#544,.T.);
#830 = ORIENTED_EDGE('',*,*,#824,.F.);
#831 = ORIENTED_EDGE('',*,*,#183,.F.);
#832 = CYLINDRICAL_SURFACE('',#833,2.);
#833 = AXIS2_PLACEMENT_3D('',#834,#835,#836);
#834 = CARTESIAN_POINT('',(-2.099999999997,-17.,11.));
#835 = DIRECTION('',(-0.,-0.,-1.));
#836 = DIRECTION('',(1.,0.,0.));
#837 = ADVANCED_FACE('',(#838),#849,.F.);
#838 = FACE_BOUND('',#839,.T.);
#839 = EDGE_LOOP('',(#840,#846,#847,#848));
#840 = ORIENTED_EDGE('',*,*,#841,.T.);
#841 = EDGE_CURVE('',#195,#556,#842,.T.);
#842 = LINE('',#843,#844);
#843 = CARTESIAN_POINT('',(-10.1,-17.,11.));
#844 = VECTOR('',#845,1.);
#845 = DIRECTION('',(0.,0.,1.));
#846 = ORIENTED_EDGE('',*,*,#555,.T.);
#847 = ORIENTED_EDGE('',*,*,#841,.F.);
#848 = ORIENTED_EDGE('',*,*,#194,.F.);
#849 = CYLINDRICAL_SURFACE('',#850,2.);
#850 = AXIS2_PLACEMENT_3D('',#851,#852,#853);
#851 = CARTESIAN_POINT('',(-12.1,-17.,11.));
#852 = DIRECTION('',(-0.,-0.,-1.));
#853 = DIRECTION('',(1.,0.,0.));
#854 = ADVANCED_FACE('',(#855),#880,.F.);
#855 = FACE_BOUND('',#856,.T.);
#856 = EDGE_LOOP('',(#857,#865,#873,#879));
#857 = ORIENTED_EDGE('',*,*,#858,.T.);
#858 = EDGE_CURVE('',#206,#859,#861,.T.);
#859 = VERTEX_POINT('',#860);
#860 = CARTESIAN_POINT('',(-25.50000000001,-19.99999999998,8.));
#861 = LINE('',#862,#863);
#862 = CARTESIAN_POINT('',(-25.50000000001,-19.99999999998,11.));
#863 = VECTOR('',#864,1.);
#864 = DIRECTION('',(0.,0.,-1.));
#865 = ORIENTED_EDGE('',*,*,#866,.T.);
#866 = EDGE_CURVE('',#859,#867,#869,.T.);
#867 = VERTEX_POINT('',#868);
#868 = CARTESIAN_POINT('',(-28.,-19.99999999998,8.));
#869 = LINE('',#870,#871);
#870 = CARTESIAN_POINT('',(-25.50000000001,-19.99999999998,8.));
#871 = VECTOR('',#872,1.);
#872 = DIRECTION('',(-1.,-0.,-0.));
#873 = ORIENTED_EDGE('',*,*,#874,.F.);
#874 = EDGE_CURVE('',#208,#867,#875,.T.);
#875 = LINE('',#876,#877);
#876 = CARTESIAN_POINT('',(-28.,-19.99999999998,11.));
#877 = VECTOR('',#878,1.);
#878 = DIRECTION('',(0.,0.,-1.));
#879 = ORIENTED_EDGE('',*,*,#205,.F.);
#880 = PLANE('',#881);
#881 = AXIS2_PLACEMENT_3D('',#882,#883,#884);
#882 = CARTESIAN_POINT('',(-25.50000000001,-19.99999999998,11.));
#883 = DIRECTION('',(-0.,-1.,-0.));
#884 = DIRECTION('',(1.,0.,0.));
#885 = ADVANCED_FACE('',(#886),#904,.F.);
#886 = FACE_BOUND('',#887,.T.);
#887 = EDGE_LOOP('',(#888,#896,#902,#903));
#888 = ORIENTED_EDGE('',*,*,#889,.T.);
#889 = EDGE_CURVE('',#240,#890,#892,.T.);
#890 = VERTEX_POINT('',#891);
#891 = CARTESIAN_POINT('',(-25.50000000001,-21.,8.));
#892 = LINE('',#893,#894);
#893 = CARTESIAN_POINT('',(-25.50000000001,-21.,11.));
#894 = VECTOR('',#895,1.);
#895 = DIRECTION('',(0.,0.,-1.));
#896 = ORIENTED_EDGE('',*,*,#897,.T.);
#897 = EDGE_CURVE('',#890,#859,#898,.T.);
#898 = LINE('',#899,#900);
#899 = CARTESIAN_POINT('',(-25.50000000001,-21.,8.));
#900 = VECTOR('',#901,1.);
#901 = DIRECTION('',(0.,1.,0.));
#902 = ORIENTED_EDGE('',*,*,#858,.F.);
#903 = ORIENTED_EDGE('',*,*,#247,.F.);
#904 = PLANE('',#905);
#905 = AXIS2_PLACEMENT_3D('',#906,#907,#908);
#906 = CARTESIAN_POINT('',(-25.50000000001,-21.,11.));
#907 = DIRECTION('',(-1.,-0.,-0.));
#908 = DIRECTION('',(-0.,-1.,-0.));
#909 = ADVANCED_FACE('',(#910),#928,.F.);
#910 = FACE_BOUND('',#911,.T.);
#911 = EDGE_LOOP('',(#912,#920,#926,#927));
#912 = ORIENTED_EDGE('',*,*,#913,.T.);
#913 = EDGE_CURVE('',#232,#914,#916,.T.);
#914 = VERTEX_POINT('',#915);
#915 = CARTESIAN_POINT('',(-29.,-21.,8.));
#916 = LINE('',#917,#918);
#917 = CARTESIAN_POINT('',(-29.,-21.,11.));
#918 = VECTOR('',#919,1.);
#919 = DIRECTION('',(0.,0.,-1.));
#920 = ORIENTED_EDGE('',*,*,#921,.T.);
#921 = EDGE_CURVE('',#914,#890,#922,.T.);
#922 = LINE('',#923,#924);
#923 = CARTESIAN_POINT('',(-29.,-21.,8.));
#924 = VECTOR('',#925,1.);
#925 = DIRECTION('',(1.,0.,0.));
#926 = ORIENTED_EDGE('',*,*,#889,.F.);
#927 = ORIENTED_EDGE('',*,*,#239,.F.);
#928 = PLANE('',#929);
#929 = AXIS2_PLACEMENT_3D('',#930,#931,#932);
#930 = CARTESIAN_POINT('',(-29.,-21.,11.));
#931 = DIRECTION('',(0.,1.,0.));
#932 = DIRECTION('',(-1.,-0.,-0.));
#933 = ADVANCED_FACE('',(#934),#952,.F.);
#934 = FACE_BOUND('',#935,.T.);
#935 = EDGE_LOOP('',(#936,#944,#950,#951));
#936 = ORIENTED_EDGE('',*,*,#937,.T.);
#937 = EDGE_CURVE('',#224,#938,#940,.T.);
#938 = VERTEX_POINT('',#939);
#939 = CARTESIAN_POINT('',(-29.,-17.5,8.));
#940 = LINE('',#941,#942);
#941 = CARTESIAN_POINT('',(-29.,-17.5,11.));
#942 = VECTOR('',#943,1.);
#943 = DIRECTION('',(0.,0.,-1.));
#944 = ORIENTED_EDGE('',*,*,#945,.T.);
#945 = EDGE_CURVE('',#938,#914,#946,.T.);
#946 = LINE('',#947,#948);
#947 = CARTESIAN_POINT('',(-29.,-17.5,8.));
#948 = VECTOR('',#949,1.);
#949 = DIRECTION('',(-0.,-1.,-0.));
#950 = ORIENTED_EDGE('',*,*,#913,.F.);
#951 = ORIENTED_EDGE('',*,*,#231,.F.);
#952 = PLANE('',#953);
#953 = AXIS2_PLACEMENT_3D('',#954,#955,#956);
#954 = CARTESIAN_POINT('',(-29.,-17.5,11.));
#955 = DIRECTION('',(1.,0.,0.));
#956 = DIRECTION('',(0.,1.,0.));
#957 = ADVANCED_FACE('',(#958),#976,.F.);
#958 = FACE_BOUND('',#959,.T.);
#959 = EDGE_LOOP('',(#960,#968,#974,#975));
#960 = ORIENTED_EDGE('',*,*,#961,.T.);
#961 = EDGE_CURVE('',#216,#962,#964,.T.);
#962 = VERTEX_POINT('',#963);
#963 = CARTESIAN_POINT('',(-28.,-17.5,8.));
#964 = LINE('',#965,#966);
#965 = CARTESIAN_POINT('',(-28.,-17.5,11.));
#966 = VECTOR('',#967,1.);
#967 = DIRECTION('',(0.,0.,-1.));
#968 = ORIENTED_EDGE('',*,*,#969,.T.);
#969 = EDGE_CURVE('',#962,#938,#970,.T.);
#970 = LINE('',#971,#972);
#971 = CARTESIAN_POINT('',(-28.,-17.5,8.));
#972 = VECTOR('',#973,1.);
#973 = DIRECTION('',(-1.,-0.,-0.));
#974 = ORIENTED_EDGE('',*,*,#937,.F.);
#975 = ORIENTED_EDGE('',*,*,#223,.F.);
#976 = PLANE('',#977);
#977 = AXIS2_PLACEMENT_3D('',#978,#979,#980);
#978 = CARTESIAN_POINT('',(-28.,-17.5,11.));
#979 = DIRECTION('',(-0.,-1.,-0.));
#980 = DIRECTION('',(1.,0.,0.));
#981 = ADVANCED_FACE('',(#982),#993,.F.);
#982 = FACE_BOUND('',#983,.T.);
#983 = EDGE_LOOP('',(#984,#985,#991,#992));
#984 = ORIENTED_EDGE('',*,*,#874,.T.);
#985 = ORIENTED_EDGE('',*,*,#986,.T.);
#986 = EDGE_CURVE('',#867,#962,#987,.T.);
#987 = LINE('',#988,#989);
#988 = CARTESIAN_POINT('',(-28.,-19.99999999998,8.));
#989 = VECTOR('',#990,1.);
#990 = DIRECTION('',(0.,1.,0.));
#991 = ORIENTED_EDGE('',*,*,#961,.F.);
#992 = ORIENTED_EDGE('',*,*,#215,.F.);
#993 = PLANE('',#994);
#994 = AXIS2_PLACEMENT_3D('',#995,#996,#997);
#995 = CARTESIAN_POINT('',(-28.,-19.99999999998,11.));
#996 = DIRECTION('',(-1.,-0.,-0.));
#997 = DIRECTION('',(-0.,-1.,-0.));
#998 = ADVANCED_FACE('',(#999),#1010,.F.);
#999 = FACE_BOUND('',#1000,.T.);
#1000 = EDGE_LOOP('',(#1001,#1007,#1008,#1009));
#1001 = ORIENTED_EDGE('',*,*,#1002,.T.);
#1002 = EDGE_CURVE('',#256,#567,#1003,.T.);
#1003 = LINE('',#1004,#1005);
#1004 = CARTESIAN_POINT('',(-20.1,-17.,11.));
#1005 = VECTOR('',#1006,1.);
#1006 = DIRECTION('',(0.,0.,1.));
#1007 = ORIENTED_EDGE('',*,*,#566,.T.);
#1008 = ORIENTED_EDGE('',*,*,#1002,.F.);
#1009 = ORIENTED_EDGE('',*,*,#255,.F.);
#1010 = CYLINDRICAL_SURFACE('',#1011,2.);
#1011 = AXIS2_PLACEMENT_3D('',#1012,#1013,#1014);
#1012 = CARTESIAN_POINT('',(-22.1,-17.,11.));
#1013 = DIRECTION('',(-0.,-0.,-1.));
#1014 = DIRECTION('',(1.,0.,0.));
#1015 = ADVANCED_FACE('',(#1016),#1041,.F.);
#1016 = FACE_BOUND('',#1017,.T.);
#1017 = EDGE_LOOP('',(#1018,#1026,#1034,#1040));
#1018 = ORIENTED_EDGE('',*,*,#1019,.T.);
#1019 = EDGE_CURVE('',#333,#1020,#1022,.T.);
#1020 = VERTEX_POINT('',#1021);
#1021 = CARTESIAN_POINT('',(29.,21.,8.));
#1022 = LINE('',#1023,#1024);
#1023 = CARTESIAN_POINT('',(29.,21.,11.));
#1024 = VECTOR('',#1025,1.);
#1025 = DIRECTION('',(0.,0.,-1.));
#1026 = ORIENTED_EDGE('',*,*,#1027,.T.);
#1027 = EDGE_CURVE('',#1020,#1028,#1030,.T.);
#1028 = VERTEX_POINT('',#1029);
#1029 = CARTESIAN_POINT('',(25.500000000011,21.,8.));
#1030 = LINE('',#1031,#1032);
#1031 = CARTESIAN_POINT('',(29.,21.,8.));
#1032 = VECTOR('',#1033,1.);
#1033 = DIRECTION('',(-1.,-0.,-0.));
#1034 = ORIENTED_EDGE('',*,*,#1035,.F.);
#1035 = EDGE_CURVE('',#267,#1028,#1036,.T.);
#1036 = LINE('',#1037,#1038);
#1037 = CARTESIAN_POINT('',(25.500000000011,21.,11.));
#1038 = VECTOR('',#1039,1.);
#1039 = DIRECTION('',(0.,0.,-1.));
#1040 = ORIENTED_EDGE('',*,*,#340,.F.);
#1041 = PLANE('',#1042);
#1042 = AXIS2_PLACEMENT_3D('',#1043,#1044,#1045);
#1043 = CARTESIAN_POINT('',(29.,21.,11.));
#1044 = DIRECTION('',(-0.,-1.,-0.));
#1045 = DIRECTION('',(1.,0.,0.));
#1046 = ADVANCED_FACE('',(#1047),#1065,.F.);
#1047 = FACE_BOUND('',#1048,.T.);
#1048 = EDGE_LOOP('',(#1049,#1057,#1063,#1064));
#1049 = ORIENTED_EDGE('',*,*,#1050,.T.);
#1050 = EDGE_CURVE('',#325,#1051,#1053,.T.);
#1051 = VERTEX_POINT('',#1052);
#1052 = CARTESIAN_POINT('',(29.,17.5,8.));
#1053 = LINE('',#1054,#1055);
#1054 = CARTESIAN_POINT('',(29.,17.5,11.));
#1055 = VECTOR('',#1056,1.);
#1056 = DIRECTION('',(0.,0.,-1.));
#1057 = ORIENTED_EDGE('',*,*,#1058,.T.);
#1058 = EDGE_CURVE('',#1051,#1020,#1059,.T.);
#1059 = LINE('',#1060,#1061);
#1060 = CARTESIAN_POINT('',(29.,17.5,8.));
#1061 = VECTOR('',#1062,1.);
#1062 = DIRECTION('',(0.,1.,0.));
#1063 = ORIENTED_EDGE('',*,*,#1019,.F.);
#1064 = ORIENTED_EDGE('',*,*,#332,.F.);
#1065 = PLANE('',#1066);
#1066 = AXIS2_PLACEMENT_3D('',#1067,#1068,#1069);
#1067 = CARTESIAN_POINT('',(29.,17.5,11.));
#1068 = DIRECTION('',(-1.,-0.,-0.));
#1069 = DIRECTION('',(-0.,-1.,-0.));
#1070 = ADVANCED_FACE('',(#1071),#1089,.F.);
#1071 = FACE_BOUND('',#1072,.T.);
#1072 = EDGE_LOOP('',(#1073,#1081,#1087,#1088));
#1073 = ORIENTED_EDGE('',*,*,#1074,.T.);
#1074 = EDGE_CURVE('',#317,#1075,#1077,.T.);
#1075 = VERTEX_POINT('',#1076);
#1076 = CARTESIAN_POINT('',(28.,17.5,8.));
#1077 = LINE('',#1078,#1079);
#1078 = CARTESIAN_POINT('',(28.,17.5,11.));
#1079 = VECTOR('',#1080,1.);
#1080 = DIRECTION('',(0.,0.,-1.));
#1081 = ORIENTED_EDGE('',*,*,#1082,.T.);
#1082 = EDGE_CURVE('',#1075,#1051,#1083,.T.);
#1083 = LINE('',#1084,#1085);
#1084 = CARTESIAN_POINT('',(28.,17.5,8.));
#1085 = VECTOR('',#1086,1.);
#1086 = DIRECTION('',(1.,0.,0.));
#1087 = ORIENTED_EDGE('',*,*,#1050,.F.);
#1088 = ORIENTED_EDGE('',*,*,#324,.F.);
#1089 = PLANE('',#1090);
#1090 = AXIS2_PLACEMENT_3D('',#1091,#1092,#1093);
#1091 = CARTESIAN_POINT('',(28.,17.5,11.));
#1092 = DIRECTION('',(0.,1.,0.));
#1093 = DIRECTION('',(-1.,-0.,-0.));
#1094 = ADVANCED_FACE('',(#1095),#1113,.F.);
#1095 = FACE_BOUND('',#1096,.T.);
#1096 = EDGE_LOOP('',(#1097,#1105,#1111,#1112));
#1097 = ORIENTED_EDGE('',*,*,#1098,.T.);
#1098 = EDGE_CURVE('',#309,#1099,#1101,.T.);
#1099 = VERTEX_POINT('',#1100);
#1100 = CARTESIAN_POINT('',(28.,19.999999999989,8.));
#1101 = LINE('',#1102,#1103);
#1102 = CARTESIAN_POINT('',(28.,19.999999999989,11.));
#1103 = VECTOR('',#1104,1.);
#1104 = DIRECTION('',(0.,0.,-1.));
#1105 = ORIENTED_EDGE('',*,*,#1106,.T.);
#1106 = EDGE_CURVE('',#1099,#1075,#1107,.T.);
#1107 = LINE('',#1108,#1109);
#1108 = CARTESIAN_POINT('',(28.,19.999999999989,8.));
#1109 = VECTOR('',#1110,1.);
#1110 = DIRECTION('',(-0.,-1.,-0.));
#1111 = ORIENTED_EDGE('',*,*,#1074,.F.);
#1112 = ORIENTED_EDGE('',*,*,#316,.F.);
#1113 = PLANE('',#1114);
#1114 = AXIS2_PLACEMENT_3D('',#1115,#1116,#1117);
#1115 = CARTESIAN_POINT('',(28.,19.999999999989,11.));
#1116 = DIRECTION('',(1.,0.,0.));
#1117 = DIRECTION('',(0.,1.,0.));
#1118 = ADVANCED_FACE('',(#1119),#1137,.F.);
#1119 = FACE_BOUND('',#1120,.T.);
#1120 = EDGE_LOOP('',(#1121,#1129,#1135,#1136));
#1121 = ORIENTED_EDGE('',*,*,#1122,.T.);
#1122 = EDGE_CURVE('',#301,#1123,#1125,.T.);
#1123 = VERTEX_POINT('',#1124);
#1124 = CARTESIAN_POINT('',(25.500000000011,19.999999999989,8.));
#1125 = LINE('',#1126,#1127);
#1126 = CARTESIAN_POINT('',(25.500000000011,19.999999999989,11.));
#1127 = VECTOR('',#1128,1.);
#1128 = DIRECTION('',(0.,0.,-1.));
#1129 = ORIENTED_EDGE('',*,*,#1130,.T.);
#1130 = EDGE_CURVE('',#1123,#1099,#1131,.T.);
#1131 = LINE('',#1132,#1133);
#1132 = CARTESIAN_POINT('',(25.500000000011,19.999999999989,8.));
#1133 = VECTOR('',#1134,1.);
#1134 = DIRECTION('',(1.,0.,0.));
#1135 = ORIENTED_EDGE('',*,*,#1098,.F.);
#1136 = ORIENTED_EDGE('',*,*,#308,.F.);
#1137 = PLANE('',#1138);
#1138 = AXIS2_PLACEMENT_3D('',#1139,#1140,#1141);
#1139 = CARTESIAN_POINT('',(25.500000000011,19.999999999989,11.));
#1140 = DIRECTION('',(0.,1.,0.));
#1141 = DIRECTION('',(-1.,-0.,-0.));
#1142 = ADVANCED_FACE('',(#1143),#1159,.T.);
#1143 = FACE_BOUND('',#1144,.T.);
#1144 = EDGE_LOOP('',(#1145,#1151,#1152,#1158));
#1145 = ORIENTED_EDGE('',*,*,#1146,.T.);
#1146 = EDGE_CURVE('',#285,#518,#1147,.T.);
#1147 = LINE('',#1148,#1149);
#1148 = CARTESIAN_POINT('',(-18.5,-12.7,11.));
#1149 = VECTOR('',#1150,1.);
#1150 = DIRECTION('',(0.,0.,1.));
#1151 = ORIENTED_EDGE('',*,*,#517,.T.);
#1152 = ORIENTED_EDGE('',*,*,#1153,.F.);
#1153 = EDGE_CURVE('',#293,#510,#1154,.T.);
#1154 = LINE('',#1155,#1156);
#1155 = CARTESIAN_POINT('',(25.5,-12.7,11.));
#1156 = VECTOR('',#1157,1.);
#1157 = DIRECTION('',(0.,0.,1.));
#1158 = ORIENTED_EDGE('',*,*,#292,.F.);
#1159 = PLANE('',#1160);
#1160 = AXIS2_PLACEMENT_3D('',#1161,#1162,#1163);
#1161 = CARTESIAN_POINT('',(-18.5,-12.7,11.));
#1162 = DIRECTION('',(0.,1.,0.));
#1163 = DIRECTION('',(1.,0.,0.));
#1164 = ADVANCED_FACE('',(#1165),#1176,.T.);
#1165 = FACE_BOUND('',#1166,.T.);
#1166 = EDGE_LOOP('',(#1167,#1173,#1174,#1175));
#1167 = ORIENTED_EDGE('',*,*,#1168,.T.);
#1168 = EDGE_CURVE('',#277,#502,#1169,.T.);
#1169 = LINE('',#1170,#1171);
#1170 = CARTESIAN_POINT('',(-18.5,21.5,11.));
#1171 = VECTOR('',#1172,1.);
#1172 = DIRECTION('',(0.,0.,1.));
#1173 = ORIENTED_EDGE('',*,*,#525,.T.);
#1174 = ORIENTED_EDGE('',*,*,#1146,.F.);
#1175 = ORIENTED_EDGE('',*,*,#284,.F.);
#1176 = PLANE('',#1177);
#1177 = AXIS2_PLACEMENT_3D('',#1178,#1179,#1180);
#1178 = CARTESIAN_POINT('',(-18.5,21.5,11.));
#1179 = DIRECTION('',(1.,0.,0.));
#1180 = DIRECTION('',(0.,-1.,0.));
#1181 = ADVANCED_FACE('',(#1182),#1193,.T.);
#1182 = FACE_BOUND('',#1183,.T.);
#1183 = EDGE_LOOP('',(#1184,#1190,#1191,#1192));
#1184 = ORIENTED_EDGE('',*,*,#1185,.T.);
#1185 = EDGE_CURVE('',#269,#500,#1186,.T.);
#1186 = LINE('',#1187,#1188);
#1187 = CARTESIAN_POINT('',(25.5,21.5,11.));
#1188 = VECTOR('',#1189,1.);
#1189 = DIRECTION('',(0.,0.,1.));
#1190 = ORIENTED_EDGE('',*,*,#499,.T.);
#1191 = ORIENTED_EDGE('',*,*,#1168,.F.);
#1192 = ORIENTED_EDGE('',*,*,#276,.F.);
#1193 = PLANE('',#1194);
#1194 = AXIS2_PLACEMENT_3D('',#1195,#1196,#1197);
#1195 = CARTESIAN_POINT('',(25.5,21.5,11.));
#1196 = DIRECTION('',(0.,-1.,0.));
#1197 = DIRECTION('',(-1.,0.,0.));
#1198 = ADVANCED_FACE('',(#1199),#1224,.F.);
#1199 = FACE_BOUND('',#1200,.F.);
#1200 = EDGE_LOOP('',(#1201,#1209,#1217,#1223));
#1201 = ORIENTED_EDGE('',*,*,#1202,.T.);
#1202 = EDGE_CURVE('',#349,#1203,#1205,.T.);
#1203 = VERTEX_POINT('',#1204);
#1204 = CARTESIAN_POINT('',(-28.,19.999999999989,8.));
#1205 = LINE('',#1206,#1207);
#1206 = CARTESIAN_POINT('',(-28.,19.999999999989,11.));
#1207 = VECTOR('',#1208,1.);
#1208 = DIRECTION('',(0.,0.,-1.));
#1209 = ORIENTED_EDGE('',*,*,#1210,.T.);
#1210 = EDGE_CURVE('',#1203,#1211,#1213,.T.);
#1211 = VERTEX_POINT('',#1212);
#1212 = CARTESIAN_POINT('',(-28.,17.5,8.));
#1213 = LINE('',#1214,#1215);
#1214 = CARTESIAN_POINT('',(-28.,19.999999999989,8.));
#1215 = VECTOR('',#1216,1.);
#1216 = DIRECTION('',(0.,-1.,0.));
#1217 = ORIENTED_EDGE('',*,*,#1218,.F.);
#1218 = EDGE_CURVE('',#351,#1211,#1219,.T.);
#1219 = LINE('',#1220,#1221);
#1220 = CARTESIAN_POINT('',(-28.,17.5,11.));
#1221 = VECTOR('',#1222,1.);
#1222 = DIRECTION('',(0.,0.,-1.));
#1223 = ORIENTED_EDGE('',*,*,#348,.F.);
#1224 = PLANE('',#1225);
#1225 = AXIS2_PLACEMENT_3D('',#1226,#1227,#1228);
#1226 = CARTESIAN_POINT('',(-28.,19.999999999989,11.));
#1227 = DIRECTION('',(-1.,0.,0.));
#1228 = DIRECTION('',(0.,-1.,0.));
#1229 = ADVANCED_FACE('',(#1230),#1248,.F.);
#1230 = FACE_BOUND('',#1231,.F.);
#1231 = EDGE_LOOP('',(#1232,#1233,#1241,#1247));
#1232 = ORIENTED_EDGE('',*,*,#1218,.T.);
#1233 = ORIENTED_EDGE('',*,*,#1234,.T.);
#1234 = EDGE_CURVE('',#1211,#1235,#1237,.T.);
#1235 = VERTEX_POINT('',#1236);
#1236 = CARTESIAN_POINT('',(-29.,17.5,8.));
#1237 = LINE('',#1238,#1239);
#1238 = CARTESIAN_POINT('',(-28.,17.5,8.));
#1239 = VECTOR('',#1240,1.);
#1240 = DIRECTION('',(-1.,0.,0.));
#1241 = ORIENTED_EDGE('',*,*,#1242,.F.);
#1242 = EDGE_CURVE('',#383,#1235,#1243,.T.);
#1243 = LINE('',#1244,#1245);
#1244 = CARTESIAN_POINT('',(-29.,17.5,11.));
#1245 = VECTOR('',#1246,1.);
#1246 = DIRECTION('',(0.,0.,-1.));
#1247 = ORIENTED_EDGE('',*,*,#390,.F.);
#1248 = PLANE('',#1249);
#1249 = AXIS2_PLACEMENT_3D('',#1250,#1251,#1252);
#1250 = CARTESIAN_POINT('',(-28.,17.5,11.));
#1251 = DIRECTION('',(0.,1.,0.));
#1252 = DIRECTION('',(-1.,0.,0.));
#1253 = ADVANCED_FACE('',(#1254),#1272,.F.);
#1254 = FACE_BOUND('',#1255,.F.);
#1255 = EDGE_LOOP('',(#1256,#1257,#1265,#1271));
#1256 = ORIENTED_EDGE('',*,*,#1242,.T.);
#1257 = ORIENTED_EDGE('',*,*,#1258,.T.);
#1258 = EDGE_CURVE('',#1235,#1259,#1261,.T.);
#1259 = VERTEX_POINT('',#1260);
#1260 = CARTESIAN_POINT('',(-29.,21.,8.));
#1261 = LINE('',#1262,#1263);
#1262 = CARTESIAN_POINT('',(-29.,17.5,8.));
#1263 = VECTOR('',#1264,1.);
#1264 = DIRECTION('',(0.,1.,0.));
#1265 = ORIENTED_EDGE('',*,*,#1266,.F.);
#1266 = EDGE_CURVE('',#375,#1259,#1267,.T.);
#1267 = LINE('',#1268,#1269);
#1268 = CARTESIAN_POINT('',(-29.,21.,11.));
#1269 = VECTOR('',#1270,1.);
#1270 = DIRECTION('',(0.,0.,-1.));
#1271 = ORIENTED_EDGE('',*,*,#382,.F.);
#1272 = PLANE('',#1273);
#1273 = AXIS2_PLACEMENT_3D('',#1274,#1275,#1276);
#1274 = CARTESIAN_POINT('',(-29.,17.5,11.));
#1275 = DIRECTION('',(1.,0.,0.));
#1276 = DIRECTION('',(0.,1.,0.));
#1277 = ADVANCED_FACE('',(#1278),#1296,.F.);
#1278 = FACE_BOUND('',#1279,.F.);
#1279 = EDGE_LOOP('',(#1280,#1281,#1289,#1295));
#1280 = ORIENTED_EDGE('',*,*,#1266,.T.);
#1281 = ORIENTED_EDGE('',*,*,#1282,.T.);
#1282 = EDGE_CURVE('',#1259,#1283,#1285,.T.);
#1283 = VERTEX_POINT('',#1284);
#1284 = CARTESIAN_POINT('',(-25.50000000001,21.,8.));
#1285 = LINE('',#1286,#1287);
#1286 = CARTESIAN_POINT('',(-29.,21.,8.));
#1287 = VECTOR('',#1288,1.);
#1288 = DIRECTION('',(1.,0.,0.));
#1289 = ORIENTED_EDGE('',*,*,#1290,.F.);
#1290 = EDGE_CURVE('',#367,#1283,#1291,.T.);
#1291 = LINE('',#1292,#1293);
#1292 = CARTESIAN_POINT('',(-25.50000000001,21.,11.));
#1293 = VECTOR('',#1294,1.);
#1294 = DIRECTION('',(0.,0.,-1.));
#1295 = ORIENTED_EDGE('',*,*,#374,.F.);
#1296 = PLANE('',#1297);
#1297 = AXIS2_PLACEMENT_3D('',#1298,#1299,#1300);
#1298 = CARTESIAN_POINT('',(-29.,21.,11.));
#1299 = DIRECTION('',(0.,-1.,0.));
#1300 = DIRECTION('',(1.,0.,0.));
#1301 = ADVANCED_FACE('',(#1302),#1320,.F.);
#1302 = FACE_BOUND('',#1303,.F.);
#1303 = EDGE_LOOP('',(#1304,#1305,#1313,#1319));
#1304 = ORIENTED_EDGE('',*,*,#1290,.T.);
#1305 = ORIENTED_EDGE('',*,*,#1306,.T.);
#1306 = EDGE_CURVE('',#1283,#1307,#1309,.T.);
#1307 = VERTEX_POINT('',#1308);
#1308 = CARTESIAN_POINT('',(-25.50000000001,19.999999999989,8.));
#1309 = LINE('',#1310,#1311);
#1310 = CARTESIAN_POINT('',(-25.50000000001,21.,8.));
#1311 = VECTOR('',#1312,1.);
#1312 = DIRECTION('',(0.,-1.,0.));
#1313 = ORIENTED_EDGE('',*,*,#1314,.F.);
#1314 = EDGE_CURVE('',#359,#1307,#1315,.T.);
#1315 = LINE('',#1316,#1317);
#1316 = CARTESIAN_POINT('',(-25.50000000001,19.999999999989,11.));
#1317 = VECTOR('',#1318,1.);
#1318 = DIRECTION('',(0.,0.,-1.));
#1319 = ORIENTED_EDGE('',*,*,#366,.F.);
#1320 = PLANE('',#1321);
#1321 = AXIS2_PLACEMENT_3D('',#1322,#1323,#1324);
#1322 = CARTESIAN_POINT('',(-25.50000000001,21.,11.));
#1323 = DIRECTION('',(-1.,0.,0.));
#1324 = DIRECTION('',(0.,-1.,0.));
#1325 = ADVANCED_FACE('',(#1326),#1337,.F.);
#1326 = FACE_BOUND('',#1327,.F.);
#1327 = EDGE_LOOP('',(#1328,#1329,#1335,#1336));
#1328 = ORIENTED_EDGE('',*,*,#1314,.T.);
#1329 = ORIENTED_EDGE('',*,*,#1330,.T.);
#1330 = EDGE_CURVE('',#1307,#1203,#1331,.T.);
#1331 = LINE('',#1332,#1333);
#1332 = CARTESIAN_POINT('',(-25.50000000001,19.999999999989,8.));
#1333 = VECTOR('',#1334,1.);
#1334 = DIRECTION('',(-1.,0.,0.));
#1335 = ORIENTED_EDGE('',*,*,#1202,.F.);
#1336 = ORIENTED_EDGE('',*,*,#358,.F.);
#1337 = PLANE('',#1338);
#1338 = AXIS2_PLACEMENT_3D('',#1339,#1340,#1341);
#1339 = CARTESIAN_POINT('',(-25.50000000001,19.999999999989,11.));
#1340 = DIRECTION('',(0.,1.,0.));
#1341 = DIRECTION('',(-1.,0.,0.));
#1342 = ADVANCED_FACE('',(#1343),#1351,.F.);
#1343 = FACE_BOUND('',#1344,.T.);
#1344 = EDGE_LOOP('',(#1345,#1346,#1347,#1348,#1349,#1350));
#1345 = ORIENTED_EDGE('',*,*,#671,.T.);
#1346 = ORIENTED_EDGE('',*,*,#719,.T.);
#1347 = ORIENTED_EDGE('',*,*,#767,.T.);
#1348 = ORIENTED_EDGE('',*,*,#791,.T.);
#1349 = ORIENTED_EDGE('',*,*,#750,.T.);
#1350 = ORIENTED_EDGE('',*,*,#702,.T.);
#1351 = PLANE('',#1352);
#1352 = AXIS2_PLACEMENT_3D('',#1353,#1354,#1355);
#1353 = CARTESIAN_POINT('',(1.509563697391,-0.694075692374,8.));
#1354 = DIRECTION('',(0.,0.,1.));
#1355 = DIRECTION('',(1.,0.,0.));
#1356 = ADVANCED_FACE('',(#1357),#1365,.F.);
#1357 = FACE_BOUND('',#1358,.F.);
#1358 = EDGE_LOOP('',(#1359,#1360,#1361,#1362,#1363,#1364));
#1359 = ORIENTED_EDGE('',*,*,#986,.T.);
#1360 = ORIENTED_EDGE('',*,*,#969,.T.);
#1361 = ORIENTED_EDGE('',*,*,#945,.T.);
#1362 = ORIENTED_EDGE('',*,*,#921,.T.);
#1363 = ORIENTED_EDGE('',*,*,#897,.T.);
#1364 = ORIENTED_EDGE('',*,*,#866,.T.);
#1365 = PLANE('',#1366);
#1366 = AXIS2_PLACEMENT_3D('',#1367,#1368,#1369);
#1367 = CARTESIAN_POINT('',(-1.509563697391,-0.694075692374,8.));
#1368 = DIRECTION('',(0.,0.,1.));
#1369 = DIRECTION('',(1.,0.,0.));
#1370 = ADVANCED_FACE('',(#1371),#1384,.F.);
#1371 = FACE_BOUND('',#1372,.F.);
#1372 = EDGE_LOOP('',(#1373,#1374,#1375,#1376,#1377,#1383));
#1373 = ORIENTED_EDGE('',*,*,#1106,.T.);
#1374 = ORIENTED_EDGE('',*,*,#1082,.T.);
#1375 = ORIENTED_EDGE('',*,*,#1058,.T.);
#1376 = ORIENTED_EDGE('',*,*,#1027,.T.);
#1377 = ORIENTED_EDGE('',*,*,#1378,.T.);
#1378 = EDGE_CURVE('',#1028,#1123,#1379,.T.);
#1379 = LINE('',#1380,#1381);
#1380 = CARTESIAN_POINT('',(25.500000000011,21.,8.));
#1381 = VECTOR('',#1382,1.);
#1382 = DIRECTION('',(-0.,-1.,-0.));
#1383 = ORIENTED_EDGE('',*,*,#1130,.T.);
#1384 = PLANE('',#1385);
#1385 = AXIS2_PLACEMENT_3D('',#1386,#1387,#1388);
#1386 = CARTESIAN_POINT('',(1.509563697391,0.694075692374,8.));
#1387 = DIRECTION('',(0.,0.,1.));
#1388 = DIRECTION('',(-1.,-0.,-0.));
#1389 = ADVANCED_FACE('',(#1390),#1398,.F.);
#1390 = FACE_BOUND('',#1391,.T.);
#1391 = EDGE_LOOP('',(#1392,#1393,#1394,#1395,#1396,#1397));
#1392 = ORIENTED_EDGE('',*,*,#1210,.T.);
#1393 = ORIENTED_EDGE('',*,*,#1234,.T.);
#1394 = ORIENTED_EDGE('',*,*,#1258,.T.);
#1395 = ORIENTED_EDGE('',*,*,#1282,.T.);
#1396 = ORIENTED_EDGE('',*,*,#1306,.T.);
#1397 = ORIENTED_EDGE('',*,*,#1330,.T.);
#1398 = PLANE('',#1399);
#1399 = AXIS2_PLACEMENT_3D('',#1400,#1401,#1402);
#1400 = CARTESIAN_POINT('',(-1.509563697391,0.694075692374,8.));
#1401 = DIRECTION('',(0.,0.,1.));
#1402 = DIRECTION('',(-1.,0.,0.));
#1403 = ADVANCED_FACE('',(#1404),#1414,.T.);
#1404 = FACE_BOUND('',#1405,.T.);
#1405 = EDGE_LOOP('',(#1406,#1407,#1408,#1409,#1410,#1411,#1412,#1413));
#1406 = ORIENTED_EDGE('',*,*,#1153,.T.);
#1407 = ORIENTED_EDGE('',*,*,#509,.T.);
#1408 = ORIENTED_EDGE('',*,*,#1185,.F.);
#1409 = ORIENTED_EDGE('',*,*,#266,.F.);
#1410 = ORIENTED_EDGE('',*,*,#1035,.T.);
#1411 = ORIENTED_EDGE('',*,*,#1378,.T.);
#1412 = ORIENTED_EDGE('',*,*,#1122,.F.);
#1413 = ORIENTED_EDGE('',*,*,#300,.F.);
#1414 = PLANE('',#1415);
#1415 = AXIS2_PLACEMENT_3D('',#1416,#1417,#1418);
#1416 = CARTESIAN_POINT('',(25.500000000001,5.664397905759,
    11.303664921466));
#1417 = DIRECTION('',(-1.,2.916028161618E-14,-2.287804226326E-12));
#1418 = DIRECTION('',(2.287804226326E-12,0.,-1.));
#1419 = ( GEOMETRIC_REPRESENTATION_CONTEXT(3) 
GLOBAL_UNCERTAINTY_ASSIGNED_CONTEXT((#1423)) 
GLOBAL_UNIT_ASSIGNED_CONTEXT((#1420,#1421,#1422)) REPRESENTATION_CONTEXT
('Context #1','3D Context with UNIT and UNCERTAINTY') );
#1420 = ( LENGTH_UNIT() NAMED_UNIT(*) SI_UNIT(.MILLI.,.METRE.) );
#1421 = ( NAMED_UNIT(*) PLANE_ANGLE_UNIT() SI_UNIT($,.RADIAN.) );
#1422 = ( NAMED_UNIT(*) SI_UNIT($,.STERADIAN.) SOLID_ANGLE_UNIT() );
#1423 = UNCERTAINTY_MEASURE_WITH_UNIT(LENGTH_MEASURE(1.E-07),#1420,
  'distance_accuracy_value','confusion accuracy');
#1424 = PRODUCT_RELATED_PRODUCT_CATEGORY('part',$,(#7));
#1425 = MECHANICAL_DESIGN_GEOMETRIC_PRESENTATION_REPRESENTATION('',(
    #1426),#1419);
#1426 = STYLED_ITEM('color',(#1427),#15);
#1427 = PRESENTATION_STYLE_ASSIGNMENT((#1428,#1434));
#1428 = SURFACE_STYLE_USAGE(.BOTH.,#1429);
#1429 = SURFACE_SIDE_STYLE('',(#1430));
#1430 = SURFACE_STYLE_FILL_AREA(#1431);
#1431 = FILL_AREA_STYLE('',(#1432));
#1432 = FILL_AREA_STYLE_COLOUR('',#1433);
#1433 = COLOUR_RGB('',0.678431390124,0.709803936702,0.741176476869);
#1434 = CURVE_STYLE('',#1435,POSITIVE_LENGTH_MEASURE(0.1),#1436);
#1435 = DRAUGHTING_PRE_DEFINED_CURVE_FONT('continuous');
#1436 = COLOUR_RGB('',9.803921802644E-02,9.803921802644E-02,
  9.803921802644E-02);
ENDSEC;
END-ISO-10303-21;
